<?xml version="1.0" encoding="utf-8"?>
<!-- Generator: Adobe Illustrator 26.3.1, SVG Export Plug-In . SVG Version: 6.00 Build 0)  -->
<svg version="1.1" id="Layer_1" xmlns="http://www.w3.org/2000/svg" xmlns:xlink="http://www.w3.org/1999/xlink" x="0px" y="0px"
	 viewBox="0 0 160 20" style="enable-background:new 0 0 160 20;" xml:space="preserve">
<style type="text/css">
	.st0{fill:#EC2227;}
	.st1{fill:#FFFFFF;}
</style>
<g>
	<path class="st0" d="M0,20.05h20.22v-20.1H0V20.05z M15.9,15.75H4.32V4.25H15.9V15.75z"/>
	<rect x="6.49" y="6.4" class="st0" width="7.25" height="7.21"/>
</g>
<g>
	<polygon class="st1" points="38.7,17.88 29.02,17.88 29.02,2.12 32.23,2.12 32.23,14.98 39.96,14.98 	"/>
	<path class="st1" d="M51.2,17.88l-1.37-3.36h-7l-1.4,3.36h-3.48l6.86-15.75h3l6.86,15.75H51.2z M46.33,6l-2.32,5.62h4.61L46.33,6z"
		/>
	<polygon class="st1" points="70.32,17.88 67.63,17.88 58.85,7.77 58.85,17.88 55.63,17.88 55.63,2.12 58.33,2.12 67.11,12.52 
		67.11,2.12 70.32,2.12 	"/>
	<polygon class="st1" points="82.78,17.88 76.75,11.58 75.95,11.58 75.95,17.88 72.73,17.88 72.73,2.12 75.95,2.12 75.95,8.68 
		76.49,8.68 82.64,2.12 86.61,2.12 79.33,10.02 87.11,17.88 	"/>
	<path class="st1" d="M99.06,17.88l-1.37-3.36h-7l-1.4,3.36h-3.48l6.86-15.75h3l6.86,15.75H99.06z M94.18,6l-2.32,5.62h4.61L94.18,6
		z"/>
	<polygon class="st0" points="108.56,5.02 108.56,17.88 105.34,17.88 105.34,5.02 100.07,5.02 100.07,2.12 113.84,2.12 113.84,5.02 
			"/>
	<rect x="114.99" y="2.12" class="st0" width="3.22" height="15.75"/>
	<polygon class="st0" points="132.28,17.88 120.88,17.88 120.88,2.12 124.09,2.12 124.09,14.98 132.28,14.98 	"/>
	<polygon class="st0" points="145.68,17.88 133.64,17.88 133.64,2.12 145.63,2.12 145.63,5.02 136.86,5.02 136.86,8.57 144.95,8.57 
		144.95,11.41 136.86,11.41 136.86,14.98 145.68,14.98 	"/>
	<path class="st0" d="M157.61,2.99c1.14,0.82,1.85,1.92,2.15,3.32l-3.22,0.66c-0.11-0.74-0.46-1.33-1.04-1.78
		c-0.58-0.45-1.28-0.67-2.08-0.67c-0.77,0-1.4,0.19-1.87,0.56c-0.47,0.38-0.71,0.84-0.71,1.39c0,0.86,0.53,1.4,1.58,1.6l3.41,0.68
		c1.31,0.28,2.33,0.8,3.06,1.56c0.73,0.76,1.1,1.74,1.1,2.95c0,1.52-0.58,2.73-1.73,3.62c-1.15,0.89-2.67,1.34-4.57,1.34
		c-1.75,0-3.24-0.4-4.48-1.21c-1.24-0.81-1.95-1.96-2.14-3.47l3.38-0.68c0.41,1.71,1.59,2.56,3.55,2.56c0.9,0,1.59-0.19,2.08-0.56
		c0.49-0.38,0.73-0.85,0.73-1.43c0-0.47-0.14-0.84-0.41-1.11c-0.28-0.27-0.75-0.47-1.43-0.61l-3.36-0.63
		c-2.78-0.58-4.16-2.08-4.16-4.51c0-1.43,0.54-2.58,1.63-3.47c1.09-0.89,2.55-1.33,4.4-1.33C155.1,1.77,156.48,2.18,157.61,2.99"/>
</g>
</svg>
